<svg xmlns="http://www.w3.org/2000/svg" viewBox="0 0 611.999 611.999" width="512" height="512"><path d="M281.951 565.215c0 23.964-19.495 43.458-43.458 43.458s-43.458-19.495-43.458-43.458c0-23.963 19.495-43.458 43.458-43.458s43.458 19.491 43.458 43.458zm226.102-43.459c-23.963 0-43.458 19.495-43.458 43.458 0 23.964 19.495 43.458 43.458 43.458s43.458-19.495 43.458-43.458c0-23.963-19.495-43.458-43.458-43.458zm100.344-375.455a15.552 15.552 0 0 0-11.937-5.604l-463.477-.498-30.778-125.033a15.565 15.565 0 0 0-15.107-11.84H15.559C6.964 3.326 0 10.29 0 18.885s6.964 15.559 15.559 15.559H74.9l88.591 359.9 13.296 62.673c5.386 25.407 28.149 43.847 54.122 43.847h299.716c8.595 0 15.559-6.964 15.559-15.559s-6.964-15.559-15.559-15.559H230.909c-11.364 0-21.325-8.069-23.677-19.187l-9.36-44.124h355.646c7.512 0 13.95-5.371 15.304-12.761l42.923-234.622a15.54 15.54 0 0 0-3.348-12.751z" fill="#5a3085"/></svg>