<svg xmlns="http://www.w3.org/2000/svg" width="512" height="512" viewBox="0 0 611.999 611.999"><path d="M601.671 153.75l-81.96-81.314c-7.022-6.966-15.659-10.662-25.652-10.662-10.996 0-19.305 3.98-25.986 10.662L242.178 297.683l-97.619-98.301c-8.331-6.966-16.995-10.662-25.994-10.662-9.66 0-18.324 3.696-26.654 10.662l-80.958 81.954c-14.571 14.784-14.635 37.316 0 51.958l205.239 205.915c7.314 7.392 15.993 11.017 25.986 11.017 10.328 0 19.319-3.696 26.654-11.017l332.839-332.79c7.002-7.037 10.328-15.708 10.328-26.015 0-9.667-2.786-19.192-10.328-26.654zM242.178 513.264L36.604 307.35l81.96-81.314 123.613 123.606L494.059 98.45l80.958 81.954-332.839 332.86z" fill="#5a3085"/></svg>